<svg width="64" height="65" viewBox="0 0 64 65" fill="none" xmlns="http://www.w3.org/2000/svg">
<path d="M25 33.048C25.265 33.048 25.519 32.943 25.707 32.756C25.895 32.568 26 32.313 26 32.048V25.208C26 24.134 25.421 23.136 24.432 22.574L17.792 19.322L16.544 17.451C18.056 16.673 19.135 15.143 19.264 13.335L19.57 7.072C19.586 6.842 19.59 6.613 19.583 6.385C19.533 4.801 18.909 3.268 17.821 2.1C16.579 0.765 14.822 0 13 0C11.178 0 9.421 0.765 8.179 2.098C7.249 3.097 6.658 4.361 6.474 5.697C6.412 6.143 6.396 6.596 6.428 7.049L6.737 13.357C6.865 15.15 7.943 16.675 9.455 17.451L8.202 19.33L1.477 22.729C0.566 23.266 0 24.256 0 25.314V32C0 32.551 0.446 32.999 0.998 33L24.998 33.048C24.999 33.048 25 33.048 25 33.048ZM9.425 21.886L11.131 23.592L8.577 24.43L9.425 21.886ZM16.575 21.887L17.423 24.43L14.869 23.593L16.575 21.887ZM8.422 6.298C8.488 5.247 8.91 4.263 9.643 3.476C10.521 2.534 11.712 2.015 13 2.015C14.288 2.015 15.479 2.534 16.357 3.476C17.121 4.296 17.548 5.332 17.584 6.448C17.584 6.455 17.585 6.462 17.585 6.47C17.585 6.475 17.585 6.48 17.585 6.485C17.587 6.556 17.587 6.628 17.585 6.7L11.257 5.018C11.172 4.996 11.086 4.985 11 4.985C10.829 4.985 10.658 5.029 10.506 5.115L8.422 6.298ZM8.504 8.551L11.138 7.056L17.486 8.744L17.267 13.214C17.156 14.776 15.842 16 14.275 16H11.724C10.158 16 8.843 14.776 8.733 13.236L8.504 8.551ZM11.725 18H14.276C14.352 18 14.429 17.998 14.504 17.995L15.714 19.809L13 22.522L10.287 19.809L11.497 17.995C11.572 17.998 11.648 18 11.725 18ZM24 31.046L2 31.002V25.314C2 24.961 2.188 24.631 2.436 24.483L7.265 22.044L6.052 25.683C5.932 26.042 6.025 26.437 6.292 26.705C6.482 26.897 6.738 27 7 27C7.104 27 7.209 26.984 7.312 26.95L13 25.085L18.688 26.951C18.791 26.984 18.896 27 19 27C19.262 27 19.518 26.897 19.709 26.706C19.976 26.438 20.068 26.043 19.949 25.684L18.722 22.004L23.496 24.34C23.807 24.518 24 24.85 24 25.208V31.046Z" fill="white"/>
<path d="M39 45V43C39 42.448 38.552 42 38 42H34V40C34 38.897 33.103 38 32 38H4C2.897 38 2 38.897 2 40V56C2 57.103 2.897 58 4 58H26V56H4V40H32V43C32 43.552 32.448 44 33 44H37V44.586L32.293 49.293C32.105 49.48 32 49.735 32 50V56H28V58H32C33.103 58 34 57.103 34 56V50.414L38.707 45.707C38.895 45.52 39 45.265 39 45Z" fill="white"/>
<path d="M30 18.414V24C30 25.103 30.897 26 32 26H60C61.103 26 62 25.103 62 24V8C62 6.897 61.103 6 60 6H32C30.897 6 30 6.897 30 8V10H26C25.448 10 25 10.448 25 11V13C25 13.265 25.105 13.52 25.293 13.707L30 18.414ZM27 12H31C31.552 12 32 11.552 32 11V8H60V24H32V18C32 17.735 31.895 17.48 31.707 17.293L27 12.586V12Z" fill="white"/>
<path d="M38 18H42V22H44V17V12H48V22H50V16H54V22H56V15C56 14.448 55.552 14 55 14H50V11C50 10.448 49.552 10 49 10H43C42.448 10 42 10.448 42 11V16H37C36.448 16 36 16.448 36 17V22H38V18Z" fill="white"/>
<path d="M30 51H16V53H30V51Z" fill="white"/>
<path d="M30 47H26V49H30V47Z" fill="white"/>
<path d="M24 47H6V49H24V47Z" fill="white"/>
<path d="M10 51H6V53H10V51Z" fill="white"/>
<path d="M14 51H12V53H14V51Z" fill="white"/>
<path d="M30 43H16V45H30V43Z" fill="white"/>
<path d="M14 43H6V45H14V43Z" fill="white"/>
<path d="M62.488 53.6039C62.469 53.5929 62.451 53.5829 62.432 53.5739L55.729 50.2909L54.513 48.4659C55.851 47.7899 56.855 46.5259 57.172 44.9999H61C61.552 44.9999 62 44.5519 62 43.9999V37.9999C62 35.2429 59.757 32.9999 57 32.9999H55.713C55.195 32.4689 54.592 32.0339 53.937 31.7079C53.936 31.7069 53.934 31.7069 53.933 31.7059C53.929 31.7039 53.925 31.7019 53.921 31.6999C53.529 31.5059 53.119 31.3519 52.696 31.2389C52.678 31.2339 52.66 31.2299 52.642 31.2249C52.109 31.0869 51.557 31.0149 50.999 31.0149C50.441 31.0149 49.889 31.0869 49.356 31.2249C49.338 31.2299 49.32 31.2339 49.302 31.2389C48.879 31.3519 48.469 31.5069 48.077 31.6999C48.073 31.7019 48.069 31.7039 48.065 31.7059C48.064 31.7069 48.062 31.7069 48.061 31.7079C47.36 32.0569 46.719 32.5309 46.177 33.1129C44.935 34.4459 44.298 36.2539 44.426 38.0489L44.735 44.3569C44.864 46.1619 45.957 47.6959 47.485 48.4669L46.264 50.2979L39.475 53.7289C38.566 54.2659 38 55.2559 38 56.3139V62.9999C38 63.5509 38.446 63.9989 38.998 63.9999L62.998 64.0479C62.998 64.0479 62.999 64.0479 63 64.0479C63.265 64.0479 63.519 63.9429 63.707 63.7559C63.895 63.5679 64 63.3129 64 63.0479V56.2079C64 55.1339 63.421 54.1359 62.488 53.6039ZM60 37.9999V42.9999H57.329L57.57 38.0709C57.646 37.0139 57.461 35.9599 57.049 35.0009C58.681 35.0279 60 36.3619 60 37.9999ZM54.357 34.4769C54.382 34.5039 54.406 34.5299 54.43 34.5579C54.441 34.5699 54.452 34.5829 54.463 34.5959C54.476 34.6109 54.489 34.6259 54.501 34.6399C54.514 34.6549 54.526 34.6689 54.538 34.6839C54.549 34.6969 54.559 34.7099 54.57 34.7229C54.583 34.7389 54.596 34.7549 54.608 34.7709C54.617 34.7829 54.626 34.7939 54.635 34.8059C54.648 34.8229 54.662 34.8409 54.675 34.8579C54.682 34.8679 54.689 34.8769 54.696 34.8869C54.723 34.9239 54.75 34.9609 54.776 34.9979C54.782 35.0069 54.789 35.0159 54.795 35.0249C54.805 35.0399 54.815 35.0539 54.825 35.0689C54.836 35.0859 54.848 35.1029 54.859 35.1199C54.867 35.1329 54.875 35.1449 54.883 35.1579C54.895 35.1759 54.906 35.1949 54.918 35.2129C54.926 35.2259 54.934 35.2389 54.941 35.2519C54.953 35.2719 54.965 35.2929 54.977 35.3129C54.983 35.3229 54.989 35.3329 54.995 35.3439C55.336 35.9429 55.535 36.6119 55.577 37.3139L53.494 36.1309C53.266 36.0009 52.996 35.9679 52.744 36.0339L46.415 37.7159C46.415 37.7149 46.415 37.7139 46.415 37.7129C46.414 37.6809 46.414 37.6489 46.414 37.6179C46.414 37.6109 46.414 37.6049 46.414 37.5979C46.414 37.5679 46.414 37.5389 46.415 37.5099C46.415 37.5009 46.415 37.4909 46.415 37.4809C46.416 37.4539 46.417 37.4269 46.418 37.3999C46.418 37.3879 46.419 37.3759 46.42 37.3639C46.421 37.3389 46.423 37.3139 46.424 37.2899C46.425 37.2749 46.426 37.2609 46.427 37.2459C46.429 37.2239 46.43 37.2009 46.432 37.1789C46.433 37.1629 46.435 37.1479 46.436 37.1319C46.438 37.1089 46.441 37.0869 46.443 37.0639C46.445 37.0489 46.446 37.0349 46.448 37.0209C46.451 36.9979 46.454 36.9739 46.457 36.9509C46.459 36.9369 46.461 36.9229 46.463 36.9099C46.467 36.8859 46.47 36.8619 46.474 36.8379C46.476 36.8259 46.478 36.8139 46.48 36.8009C46.484 36.7759 46.489 36.7499 46.494 36.7249C46.496 36.7139 46.498 36.7039 46.5 36.6929C46.505 36.6669 46.51 36.6409 46.516 36.6149C46.518 36.6049 46.52 36.5949 46.523 36.5859C46.529 36.5589 46.535 36.5319 46.542 36.5049C46.544 36.4969 46.546 36.4889 46.548 36.4819C46.555 36.4529 46.563 36.4249 46.57 36.3959C46.57 36.3949 46.57 36.3939 46.571 36.3929C46.618 36.2209 46.674 36.0529 46.741 35.8879C46.743 35.8829 46.745 35.8779 46.747 35.8729C46.759 35.8439 46.771 35.8159 46.783 35.7869C46.785 35.7809 46.788 35.7759 46.79 35.7699C46.802 35.7419 46.815 35.7149 46.827 35.6869C46.83 35.6799 46.833 35.6739 46.836 35.6669C46.849 35.6399 46.861 35.6129 46.875 35.5869C46.878 35.5799 46.882 35.5729 46.885 35.5669C46.898 35.5409 46.912 35.5139 46.925 35.4879C46.929 35.4809 46.932 35.4749 46.936 35.4679C46.95 35.4419 46.964 35.4159 46.979 35.3899C46.983 35.3829 46.986 35.3769 46.99 35.3699C47.004 35.3449 47.019 35.3199 47.033 35.2949C47.038 35.2869 47.043 35.2789 47.047 35.2709C47.061 35.2479 47.075 35.2249 47.089 35.2019C47.095 35.1919 47.102 35.1809 47.108 35.1709C47.122 35.1489 47.136 35.1279 47.15 35.1059C47.156 35.0969 47.162 35.0869 47.169 35.0779C47.184 35.0559 47.199 35.0339 47.214 35.0119C47.22 35.0029 47.227 34.9939 47.233 34.9839C47.248 34.9619 47.263 34.9409 47.279 34.9199C47.286 34.9109 47.293 34.9009 47.3 34.8919C47.316 34.8699 47.332 34.8489 47.348 34.8279C47.354 34.8189 47.361 34.8109 47.368 34.8029C47.384 34.7819 47.401 34.7609 47.418 34.7399C47.426 34.7299 47.435 34.7189 47.443 34.7089C47.459 34.6899 47.475 34.6699 47.491 34.6509C47.502 34.6379 47.513 34.6259 47.524 34.6129C47.538 34.5969 47.551 34.5809 47.565 34.5649C47.591 34.5359 47.617 34.5069 47.643 34.4789C48.52 33.5369 49.712 33.0179 51 33.0179C52.288 33.0179 53.479 33.5339 54.357 34.4769ZM46.514 39.7589L52.861 38.0719L55.494 39.5669L55.267 44.2149C55.156 45.7759 53.842 46.9999 52.275 46.9999H49.724C48.158 46.9999 46.843 45.7759 46.733 44.2359L46.514 39.7589ZM52.275 48.9999H52.464L53.713 50.8729L51 53.5859L48.287 50.8729L49.535 48.9999H49.724H52.275ZM62 62.0459L40 62.0019V56.3139C40 55.9609 40.188 55.6309 40.436 55.4829L46.805 52.2659L50 55.4609V59.9999H52V55.4609L55.202 52.2589L61.519 55.3529C61.816 55.5339 62 55.8589 62 56.2079V62.0459Z" fill="white"/>
</svg>
