<svg width="189" height="33" viewBox="0 0 189 33" fill="none" xmlns="http://www.w3.org/2000/svg">
<path d="M65.5203 5.05553H70.1271V0.644964H65.5203V5.05553ZM65.5522 26.046H70.0312V8.56467H65.5522V26.046ZM132.704 17.418C132.704 24.6294 136.191 26.4645 142.078 26.4645C147.964 26.4645 151.515 24.4363 151.515 17.3214C151.515 10.11 147.964 8.17834 142.078 8.17834C136.191 8.17834 132.704 10.3031 132.704 17.418ZM142.142 23.9212C138.239 23.9212 137.407 21.8929 137.407 17.3214C137.407 12.8465 138.111 10.7217 142.014 10.7217C145.949 10.7217 146.813 12.7499 146.813 17.3214C146.781 21.7642 146.077 23.9212 142.142 23.9212ZM155.323 26.046H159.801V16.6775C159.801 12.943 161.113 12.6211 166.904 12.6211V8.4037C162.713 8.4037 160.569 9.9812 159.801 13.0074V8.59686H155.323V26.046ZM169.975 32.6135H174.454V23.4061C174.454 23.4061 174.838 26.4323 180.277 26.4323C186.067 26.4323 188.658 23.9212 188.658 17.2892C188.658 10.8826 186.291 8.14615 180.724 8.14615C174.966 8.14615 174.454 11.6875 174.454 11.6875V8.53247H169.975V32.6135ZM179.157 23.6958C175.19 23.6958 174.518 21.4744 174.518 17.2892C174.518 13.265 175.35 11.108 179.157 11.108C182.836 11.108 183.956 13.265 183.956 17.2892C183.956 21.6998 182.708 23.6958 179.157 23.6958ZM59.1538 1.12787C59.1538 1.12787 55.8906 0.290834 51.9875 0.290834C45.6851 0.290834 40.5663 1.83614 40.5663 7.43788C40.5663 11.8806 43.0617 13.265 47.5086 14.3596L52.8193 15.6795C55.3147 16.2912 56.4345 16.9673 56.4345 19.4462C56.4345 22.9231 53.3952 23.2451 49.908 23.2451C44.9812 23.2451 40.9182 21.6998 40.9182 21.6998V25.3377C40.9182 25.3377 44.4054 26.4967 49.0762 26.4967C55.4747 26.4967 61.2333 25.3377 61.2333 18.8989C61.2333 14.263 58.6419 12.7177 54.323 11.6875L49.3322 10.4963C46.7088 9.88462 45.4291 9.24074 45.4291 6.95497C45.4291 3.86436 48.2444 3.44584 51.7636 3.44584C56.1465 3.44584 59.1538 4.60482 59.1538 4.60482V1.12787ZM129.441 1.64298C129.441 1.64298 126.689 0.387416 122.402 0.387416C114.085 0.387416 108.742 4.1863 108.742 13.4259C108.742 22.6656 112.997 26.4967 122.434 26.4967C127.297 26.4967 130.049 25.0801 130.049 25.0801V21.5066C130.049 21.5066 127.585 23.1163 123.138 23.1163C117.028 23.1163 113.701 20.9593 113.701 13.2006C113.701 6.11793 116.036 3.70338 122.818 3.70338C126.434 3.70338 129.441 5.02334 129.441 5.02334V1.64298ZM86.3152 8.14615C80.5566 8.14615 80.2367 11.7519 80.2367 11.7519V8.59686H75.7578V26.046H80.2367V16.9995C80.2367 12.4601 81.9323 11.2046 84.4597 11.2046C87.115 11.2046 88.1388 11.9128 88.1388 15.8405V26.046H92.6177V16.9995C92.6177 12.4923 94.2813 11.2046 96.8087 11.2046C99.464 11.2046 100.488 11.9128 100.488 15.8405V26.046H104.967V15.0034C104.967 9.88462 103.079 8.14615 98.6642 8.14615C93.0016 8.14615 92.2338 11.7519 92.2338 11.7519C91.466 9.11196 89.6104 8.14615 86.3152 8.14615Z" fill="#263542"/>
<path d="M18.7474 10.9145H10.8453V18.8664H18.7474V10.9145ZM17.1478 17.2567H14.0126V14.1017H17.1478V17.2567Z" fill="#263542"/>
<path d="M21.3389 6.76132H6.71844V21.4739H21.3389V6.76132ZM19.7393 19.8642H9.85369V9.91633H19.7393V19.8642Z" fill="#263542"/>
<path d="M23.9302 2.57556H2.59131V24.0489H23.9302V2.57556ZM22.3305 22.4714H5.72655V5.76275H22.3305V22.4714Z" fill="#263542"/>
<path d="M-9.76327e-07 -1.96496e-06V26.6887H26.5216V-1.96496e-06H-9.76327e-07ZM24.922 25.0791H1.59961V1.60969H24.922V25.0791Z" fill="#263542"/>
</svg>
